<svg id="Group_5" data-name="Group 5" xmlns="http://www.w3.org/2000/svg" width="42" height="42" viewBox="0 0 42 42">
  <path id="Path_9" data-name="Path 9" d="M0,0H42V42H0Z" fill="none"/>
  <path id="Path_10" data-name="Path 10" d="M2.05,22.911H12.481A34.284,34.284,0,0,0,18.051,39.88a19.091,19.091,0,0,1-16-16.969Zm0-3.822a19.091,19.091,0,0,1,16-16.969,34.284,34.284,0,0,0-5.571,16.969Zm37.9,0H29.518A34.284,34.284,0,0,0,23.948,2.12a19.091,19.091,0,0,1,16,16.969Zm0,3.822a19.091,19.091,0,0,1-16,16.969,34.284,34.284,0,0,0,5.571-16.969H39.951Zm-23.654,0H25.7A30.47,30.47,0,0,1,21,37.419a30.47,30.47,0,0,1-4.7-14.508Zm0-3.822A30.47,30.47,0,0,1,21,4.581a30.47,30.47,0,0,1,4.7,14.508Z" transform="translate(0)" fill="#fff"/>
</svg>
